<svg width="18" height="21" viewBox="0 0 18 21" fill="none" xmlns="http://www.w3.org/2000/svg">
<path d="M9.58442 17.7662C7.84845 17.7662 6.18359 17.0766 4.95608 15.8491C3.72857 14.6216 3.03896 12.9567 3.03896 11.2208C3.03896 10.0239 3.36623 8.88312 3.92727 7.94805L12.8571 16.8686C11.9221 17.439 10.7813 17.7662 9.58442 17.7662ZM1.16883 2.80519L0 3.99273L2.57143 6.57351C1.65271 7.94891 1.16442 9.56676 1.16883 11.2208C1.16883 13.4527 2.05547 15.5933 3.6337 17.1715C5.21193 18.7497 7.35246 19.6364 9.58442 19.6364C11.3049 19.6364 12.9039 19.1221 14.2597 18.2338L16.5974 20.5714L17.7662 19.3839L10.5569 12.1558L1.16883 2.80519ZM8.64935 7.89195L10.5195 9.76208V6.54545H8.64935V7.89195ZM12.3896 0H6.77922V1.87013H12.3896V0ZM16.1673 3.31948L14.8395 4.64727C13.3471 3.45549 11.4942 2.80599 9.58442 2.80519C7.87325 2.80519 6.28364 3.31948 4.95584 4.20779L6.31169 5.55429C7.27481 5.0026 8.39688 4.67532 9.58442 4.67532C11.3204 4.67532 12.9852 5.36493 14.2128 6.59244C15.4403 7.81995 16.1299 9.48482 16.1299 11.2208C16.1299 12.4083 15.8026 13.5304 15.2509 14.4935L16.5974 15.84C17.4857 14.5216 18 12.9319 18 11.2208C18 9.23844 17.3081 7.41506 16.1579 5.97506L17.4857 4.64727L16.1673 3.31948Z" fill="#666666"/>
</svg>
