<svg width="16" height="19" viewBox="0 0 16 19" fill="none" xmlns="http://www.w3.org/2000/svg">
<path d="M8 16.8889C6.34976 16.8889 4.76712 16.2333 3.60022 15.0664C2.43333 13.8995 1.77778 12.3169 1.77778 10.6667C1.77778 9.01643 2.43333 7.43378 3.60022 6.26689C4.76712 5.1 6.34976 4.44444 8 4.44444C9.65024 4.44444 11.2329 5.1 12.3998 6.26689C13.5667 7.43378 14.2222 9.01643 14.2222 10.6667C14.2222 12.3169 13.5667 13.8995 12.3998 15.0664C11.2329 16.2333 9.65024 16.8889 8 16.8889ZM14.2489 5.68L15.5111 4.41778C15.1111 3.96444 14.7111 3.55556 14.2578 3.16444L12.9956 4.44444C11.6178 3.32444 9.88444 2.66667 8 2.66667C5.87827 2.66667 3.84344 3.50952 2.34315 5.00981C0.842855 6.5101 0 8.54493 0 10.6667C0 12.7884 0.842855 14.8232 2.34315 16.3235C3.84344 17.8238 5.87827 18.6667 8 18.6667C12.4444 18.6667 16 15.0844 16 10.6667C16 8.78222 15.3422 7.04889 14.2489 5.68ZM7.11111 11.5556H8.88889V6.22222H7.11111V11.5556ZM10.6667 0H5.33333V1.77778H10.6667V0Z" fill="#666666"/>
</svg>
